<?xml version="1.0" standalone="no"?><!DOCTYPE svg PUBLIC "-//W3C//DTD SVG 1.1//EN" "http://www.w3.org/Graphics/SVG/1.1/DTD/svg11.dtd"><svg t="1771933670997" class="icon" viewBox="0 0 1024 1024" version="1.1" xmlns="http://www.w3.org/2000/svg" p-id="4860" xmlns:xlink="http://www.w3.org/1999/xlink" width="200" height="200"><path d="M726.518 457.452c-6.702-0.077-13.394 0-20.004-0.077-2.37 0-3.046 1.06-3.046 3.23 0.076 5.11 0.076 10.133 0.076 15.232v0.01c0.072 4.88 0 9.754 0.072 14.562 0 3.907 0.681 4.67 4.46 4.67 7.142 0.076 14.274 0 21.416 0.076 2.678 0 3.728-1.28 3.651-3.758-0.087-9.165-0.087-18.32-0.159-27.484a6.758 6.758 0 0 0-6.466-6.461z" fill="#ffffff" p-id="4861"></path><path d="M849.92 51.2H174.08c-67.866 0-122.88 55.014-122.88 122.88v675.84c0 67.866 55.014 122.88 122.88 122.88h675.84c67.866 0 122.88-55.014 122.88-122.88V174.08c0-67.866-55.014-122.88-122.88-122.88zM250.788 505.733c-0.737 10.593-1.413 21.253-2.606 31.847-2.09 18.39-6.242 36.264-14.643 52.864-2.161 4.126-5.136 7.797-8.182 12.456-1.854-3.906-3.415-6.978-4.828-10.132a3203.594 3203.594 0 0 1-14.792-33.567c-0.527-1.203-0.896-2.923-0.369-3.978 3.195-6.83 3.415-14.12 3.856-21.407 0.604-9.16 1.351-18.242 2.017-27.397 0.517-7.004 0.809-13.977 1.398-20.961 0.676-8.105 1.495-16.215 2.16-24.248 0.149-1.966 1.045-2.56 2.827-2.56 11.084 0 22.077 0 33.162-0.072 2.37 0 3.046 0.983 2.898 3.23-0.968 14.634-1.864 29.282-2.898 43.925z m71.29 87.327c-0.737 9.462-5.135 17.495-12.569 23.5-5.432 4.353-11.745 6.16-18.662 6.083-5.873 0-11.669-0.077-17.541 0-2.002 0-3.272-0.604-4.091-2.555-3.415-7.654-6.907-15.324-10.322-22.973-0.528-1.132-0.676-2.335-1.132-3.456-1.633-4.127-1.561-4.286 2.975-4.362h13.906c5.95 0 8.479-2.468 8.55-8.566 0.072-4.572 0.072-9.15 0.072-13.737v-72.76c0.148 0.158 0.22 0.158 0.297 0.158v-85.755c0-4.285 0.148-4.433 4.388-4.433h29.215c5.135 0 5.207 0.148 5.207 5.406 0 27.187 0 54.364 0.076 81.48 0.077 23.874 0.297 47.76 0.297 71.629 0 10.142 0.149 20.265-0.665 30.34z m75.587-28.908c-4.987 11.561-10.199 22.974-15.319 34.458-0.455 1.137-1.193 2.258-2.38 4.424v0.01c-2.975-4.506-6.093-8.182-8.11-12.396-2.827-6.139-4.532-12.836-7.358-18.995-3.046-6.681-4.158-13.88-5.576-20.946-1.177-6.02-1.403-12.252-1.843-18.33-1.203-15.395-2.237-30.786-3.44-46.095a2449.956 2449.956 0 0 0-2.074-25.165c-0.149-1.5 0.23-2.176 1.94-2.176 11.525 0 22.974-0.148 34.499-0.22 2.15 0 3.046 0.968 3.118 2.995 0.297 4.655 0.517 9.314 0.886 13.973 0.297 3.835 0.737 7.654 1.044 11.412 0.517 5.407 1.045 10.814 1.413 16.144 0.517 6.907 0.517 13.819 1.485 20.639 1.342 10.444 0.297 21.104 3.932 31.329 0.891 2.401-0.967 6.087-2.217 8.94z m84.28 22.016c-2.897 6.682-6.02 13.215-8.99 19.825-1.644 3.748-3.195 7.496-4.767 11.254-1.853 4.51-3.118 5.406-7.874 5.406h-22.298c-7.521 0-15.027 0.236-22.533-0.076-3.564-0.144-7.066-1.275-10.63-2.028-1.791-0.369-2.16-1.423-1.412-3.144a3709.716 3709.716 0 0 0 13.45-29.214c1.044-2.248 1.853-4.654 3.046-6.907 0.297-0.615 1.413-1.28 2.002-1.132 12.421 3.154 25.134 2.775 37.765 2.632a874.65 874.65 0 0 1 20.076 0c3.195 0.005 3.502 0.456 2.166 3.384z m3.84-21.867a4.485 4.485 0 0 1-2.749 1.433c-13.896 0.077-27.878 0.149-41.774-0.076-4.24-0.087-8.55-1.055-11.745-4.286-3.354-3.379-4.987-7.362-3.282-11.94a897.526 897.526 0 0 1 9.585-24.105c3.88-9.154 7.813-18.319 12.052-28.236-2.31-0.149-3.712-0.297-5.048-0.297-4.091-0.072-8.182 0.297-12.273-0.23-4.46-0.518-8.99-1.045-12.483-4.793-3.425-3.687-3.947-8.044-2.606-12.324 2.15-6.83 4.977-13.44 7.803-20.05 2.678-6.154 5.724-12.16 8.479-18.242 2.975-6.539 5.868-13.072 8.77-19.61a1361.992 1361.992 0 0 0 7.655-17.336c0.737-1.808 1.869-2.478 3.87-2.478 10.937 0.071 21.93 0 32.866 0 3.635 0 3.712 0.368 2.299 3.686-6.313 14.633-12.718 29.204-18.96 43.848a11.52 11.52 0 0 0-1.192 4.879c0.22 3.907 1.044 4.506 5.063 4.506 8.172 0.076 16.353 0 24.448 0 1.649 0 3.354 0.22 4.987 0.297 2.31 0.076 2.606 1.06 1.633 3.072a2455.214 2455.214 0 0 0-13.388 29.214c-3.037 6.917-5.935 13.896-8.91 20.813a1530.163 1530.163 0 0 1-6.169 13.809c-1.94 4.203-0.604 6.313 4.152 6.39 6.022 0 12.043 0.076 18.059 0 2.089 0 3.133 0.604 2.089 2.851-3.636 8.254-7.214 16.584-10.85 24.853-0.67 1.5-1.408 3.072-2.38 4.352zM620.6 623.037H495.263c-1.72-0.22-3.487-0.22-5.945-0.22v-0.015c0.881-2.616 1.414-4.419 2.15-6.067 4.696-10.297 9.447-20.506 14.055-30.792 1.045-2.335 2.53-2.923 4.757-2.923h28.697c4.547 0 4.757-0.23 4.757-4.742V461.66c0-3.978-0.077-4.055-4.08-4.055-6.104 0-12.268-0.077-18.366 0-2.31 0-3.272-0.517-3.272-3.149 0.148-10.972 0.077-21.929 0.077-32.885 0-3.907 0.077-3.907 3.86-3.907h73.001c4.24 0 8.55 0.077 12.79 0 2.017 0 2.826 0.824 2.75 2.852-0.077 11.412-0.077 22.825-0.077 34.314 0 2.028-0.738 2.775-2.827 2.775-6.604-0.077-13.143 0.072-19.778 0.072-2.294 0-3.338 1.06-3.338 3.466 0.076 18.391 0.143 36.71 0.143 55.112 0 20.874 0 41.748 0.077 62.694 0 3.758 0.368 4.214 4.178 4.214h31.436c3.416 0 3.871 0.369 3.938 3.82 0.087 10.972 0 21.928 0.087 32.89-0.01 2.867-1.572 3.164-3.733 3.164z m198.697-34.928c-0.148 16.374-11.008 29.215-26.388 32.89-4.316 1.055-8.786 1.352-13.246 1.511-6.83 0.22-13.747 0.072-20.587 0.072-4.24 0-5.422-0.835-6.989-4.665-3.338-7.95-6.83-15.907-10.26-23.874l-0.66-1.572c-1.194-3.072-0.815-3.615 2.452-3.615 9.436-0.071 18.954 0.159 28.39-0.292 5.652-0.296 8.033-2.856 8.187-8.642 0.22-11.044-0.297-22.078-0.149-33.111 0.077-5.489-6.84-11.423-11.745-11.72a32.845 32.845 0 0 0-2.75-0.143c-18.733 0-37.544 0-56.268 0.072-5.279 0-5.653 0.532-5.653 5.862l0.21 77.558c0 4.142-0.077 4.213-4.24 4.213h-31.22c-4.015 0-4.302-0.307-4.302-4.285v-39.941c0.062 0.143 0.133 0.143 0.21 0.143v-40.996c0-2.78-1.853-2.938-3.783-2.938-10.194 0.087-20.445 0.312-30.623 0.312-6.922 0-6.18 0.819-6.257-6.39-0.077-9.902 0-19.901 0-29.803 0-3.6 0.369-4.055 3.948-4.132 10.7-0.072 21.335 0 32.04-0.072 4.092 0 4.312-0.159 4.383-4.214 0.077-9.902-0.076-19.814 0-29.732 0-2.483-1.044-3.23-3.415-3.23-6.845 0.077-13.762-0.072-20.602 0-2.15 0-2.898-0.748-2.898-2.924 0.092-11.269 0.092-22.461-0.062-33.725 0-2.704 1.034-3.292 3.415-3.292 6.313 0.076 12.647 0 18.96 0 4.234 0 4.46-0.308 4.53-4.742 0-2.616 0.15-5.242 0-7.874-0.07-2.483 1.045-3.16 3.344-3.16 9.078 0.078 18.222 0.078 27.285 0.078h4.976c3.948 0 4.02 0 4.173 4.055 0.067 2.406-0.154 4.88-0.087 7.285 0.077 3.38 0.973 4.276 4.316 4.363 5.653 0.077 11.305 0.077 17.024 0.077 14.643 0.071 27.367 5.099 37.018 16.291 5.355 6.226 8.699 13.82 9.216 22.15 0.527 8.478 0.158 17.039 0.307 25.528 0 3.159 0.22 6.39 0.369 9.533 0.143 3.16 0.896 3.978 4.09 3.907a48.568 48.568 0 0 1 19.032 3.159c13.01 5.038 21.032 14.187 23.639 28.011a44.442 44.442 0 0 1 0.737 8.33c0.082 17.89 0.066 35.784-0.067 53.684z m-9.154-134.477c-5.945 3.907-12.186 3.758-19.405 3.686-2.238 0-5.202 0.072-8.1-0.076-0.742-0.072-2.007-0.983-2.089-1.588-0.665-8.847-1.771-17.792 1.352-26.352 2.754-7.578 9.584-12.017 17.618-12.16a19.999 19.999 0 0 1 19.323 14.336c2.309 8.269-1.557 17.423-8.7 22.154z" fill="#ffffff" p-id="4862"></path></svg>